<?xml version="1.0" standalone="no"?>
<!DOCTYPE svg PUBLIC "-//W3C//DTD SVG 20010904//EN"
 "http://www.w3.org/TR/2001/REC-SVG-20010904/DTD/svg10.dtd">
<svg version="1.0" xmlns="http://www.w3.org/2000/svg"
 width="500.000000pt" height="500.000000pt" viewBox="0 0 500.000000 500.000000"
 preserveAspectRatio="xMidYMid meet">
<metadata>
Created by potrace 1.14, written by Peter Selinger 2001-2017
</metadata>
<g transform="translate(0.000000,500.000000) scale(0.100000,-0.100000)"
fill="#000000" stroke="none">
<path d="M150 4971 c-65 -34 -90 -59 -125 -124 l-25 -48 0 -2304 0 -2304 36
-61 c24 -42 51 -71 87 -95 l52 -35 2335 0 2335 0 53 46 c30 26 65 64 78 85
l24 39 0 2330 0 2330 -35 47 c-31 44 -47 58 -127 106 -25 16 -200 17 -2330 17
l-2303 -1 -55 -28z m4110 -280 c0 -4 -15 -37 -33 -72 -19 -35 -36 -74 -39 -86
-7 -28 -28 -31 -28 -4 0 50 61 171 86 171 8 0 14 -4 14 -9z m-395 -98 c15 -49
29 -95 31 -105 6 -21 -15 -35 -26 -17 -10 15 -50 172 -50 194 0 8 4 15 10 15
5 0 21 -39 35 -87z m383 -165 c89 -42 125 -139 85 -229 -11 -24 -45 -72 -76
-106 -75 -84 -81 -97 -80 -175 l1 -66 -43 -11 c-45 -11 -145 -15 -145 -6 0 3
6 14 12 25 19 30 -7 69 -72 107 -101 58 -114 68 -136 101 -82 121 8 294 186
357 105 37 193 38 268 3z m322 -43 c-7 -8 -18 -15 -25 -15 -7 0 -40 -18 -73
-40 -59 -40 -82 -48 -82 -31 0 16 83 79 131 100 47 21 72 14 49 -14z m-982
-49 c26 -13 66 -29 90 -35 27 -8 42 -17 42 -28 0 -12 -7 -14 -36 -10 -44 7
-166 67 -172 85 -6 19 24 14 76 -12z m114 -241 c1 -6 -10 -15 -23 -22 -143
-72 -195 -89 -169 -57 27 31 159 97 183 91 5 -1 9 -7 9 -12z m787 -96 c49 -18
81 -36 81 -45 0 -21 -20 -17 -101 17 -142 59 -124 83 20 28z m-754 -174 c-32
-74 -65 -109 -65 -70 0 16 40 101 68 143 32 49 30 3 -3 -73z m443 -26 c2 -12
-14 -18 -79 -28 -44 -7 -83 -10 -86 -7 -11 11 10 26 55 40 58 19 106 16 110
-5z m-20 -51 c33 -33 -6 -96 -52 -84 -14 3 -28 15 -31 26 -4 13 -15 20 -32 20
-37 0 -23 23 23 37 51 15 77 16 92 1z m-730 -338 c23 -10 42 -22 42 -26 0 -4
-11 -22 -25 -40 -29 -38 -31 -61 -9 -92 12 -18 25 -22 65 -22 l49 0 0 -592 c0
-367 -4 -607 -10 -629 -16 -57 -52 -102 -105 -131 l-50 -28 188 0 c132 0 187
-3 187 -11 0 -70 -78 -170 -148 -189 -28 -7 -379 -9 -1139 -8 l-1099 3 -42 28
c-50 32 -88 88 -97 140 l-7 37 188 0 189 0 -43 21 c-51 26 -95 76 -111 128 -8
27 -11 217 -11 635 l0 596 49 0 c79 0 110 46 68 102 -41 57 -41 57 5 78 42 19
70 20 933 20 858 0 892 -1 933 -20z"/>
<path d="M4062 4410 c-118 -25 -220 -100 -247 -181 -34 -100 -5 -154 123 -231
53 -32 63 -43 79 -87 12 -36 22 -50 33 -47 8 2 31 7 51 10 l37 7 1 54 c0 67
21 109 96 194 63 71 75 95 75 148 0 98 -116 160 -248 133z m18 -229 c5 -11 10
-31 10 -44 0 -20 4 -23 25 -19 20 3 25 0 25 -16 0 -12 -8 -27 -18 -34 -14 -9
-21 -34 -28 -87 -7 -59 -13 -75 -26 -77 -14 -2 -18 5 -18 26 0 63 -11 86 -43
96 -26 7 -32 14 -32 38 0 37 27 56 55 39 18 -12 19 -11 14 17 -7 34 2 80 16
80 5 0 14 -9 20 -19z"/>
<path d="M4000 4072 c0 -12 19 -26 26 -19 2 2 -2 10 -11 17 -9 8 -15 8 -15 2z"/>
<path d="M4067 4045 c-4 -8 -2 -17 3 -20 6 -4 10 3 10 14 0 25 -6 27 -13 6z"/>
<path d="M1652 2643 l3 -578 840 0 840 0 3 578 2 577 -845 0 -845 0 2 -577z
m826 121 c20 -14 24 -14 44 0 33 23 65 20 84 -9 25 -39 -3 -92 -79 -147 l-28
-20 -45 37 c-25 21 -53 53 -61 71 -15 30 -15 35 1 58 19 30 51 34 84 10z m123
-294 c21 -12 24 -27 9 -50 -7 -11 -34 -16 -97 -20 -87 -5 -88 -6 -48 -17 22
-7 72 -15 110 -19 69 -6 70 -6 117 31 35 27 57 37 83 37 20 0 39 -3 43 -6 3
-4 -30 -40 -74 -81 -72 -67 -84 -74 -134 -81 -71 -10 -219 -10 -292 0 l-58 7
0 73 0 72 43 32 c41 31 44 31 160 32 65 0 127 -5 138 -10z m-361 -130 l0 -110
-35 0 -35 0 0 110 0 110 35 0 35 0 0 -110z"/>
<path d="M2462 1948 c-74 -20 -92 -117 -32 -170 82 -74 207 22 156 120 -9 17
-21 34 -26 37 -25 16 -67 21 -98 13z"/>
</g>
</svg>
